<svg xmlns="http://www.w3.org/2000/svg" style="display:none">
  <!-- plus -->
  <symbol id="icon-plus" viewBox="0 0 24 24">
    <path fill="none" stroke="currentColor" stroke-linecap="round" stroke-linejoin="round" stroke-width="1.5" d="M12 4.5v15m7.5-7.5h-15" />
  </symbol>

  <!-- bars-3 (sidebar toggle) -->
  <symbol id="icon-bars-3" viewBox="0 0 24 24">
    <path fill="none" stroke="currentColor" stroke-linecap="round" stroke-linejoin="round" stroke-width="1.5" d="M3.75 6.75h16.5M3.75 12h16.5m-16.5 5.25h16.5" />
  </symbol>

  <!-- eye (reading mode) -->
  <symbol id="icon-eye" viewBox="0 0 24 24">
    <path fill="none" stroke="currentColor" stroke-linecap="round" stroke-linejoin="round" stroke-width="1.5" d="M2.036 12.322a1.012 1.012 0 0 1 0-.639C3.423 7.51 7.36 4.5 12 4.5c4.638 0 8.573 3.007 9.963 7.178.07.207.07.431 0 .639C20.577 16.49 16.64 19.5 12 19.5c-4.638 0-8.573-3.007-9.963-7.178Z" />
    <path fill="none" stroke="currentColor" stroke-linecap="round" stroke-linejoin="round" stroke-width="1.5" d="M15 12a3 3 0 1 1-6 0 3 3 0 0 1 6 0Z" />
  </symbol>

  <!-- pencil-square (edit mode) -->
  <symbol id="icon-pencil-square" viewBox="0 0 24 24">
    <path fill="none" stroke="currentColor" stroke-linecap="round" stroke-linejoin="round" stroke-width="1.5" d="M16.862 4.487l1.687-1.688a1.875 1.875 0 1 1 2.652 2.652L10.582 16.07a4.5 4.5 0 0 1-1.897 1.13L6 18l.8-2.685a4.5 4.5 0 0 1 1.13-1.897l8.932-8.931Zm0 0L19.5 7.125" />
  </symbol>

  <!-- link (share) -->
  <symbol id="icon-link" viewBox="0 0 24 24">
    <path fill="none" stroke="currentColor" stroke-linecap="round" stroke-linejoin="round" stroke-width="1.5" d="M13.19 8.688a4.5 4.5 0 0 1 1.242 7.244l-4.5 4.5a4.5 4.5 0 0 1-6.364-6.364l1.757-1.757m13.35-.622 1.757-1.757a4.5 4.5 0 0 0-6.364-6.364l-4.5 4.5a4.5 4.5 0 0 0 1.242 7.244" />
  </symbol>

  <!-- arrow-down-tray (export) -->
  <symbol id="icon-arrow-down-tray" viewBox="0 0 24 24">
    <path fill="none" stroke="currentColor" stroke-linecap="round" stroke-linejoin="round" stroke-width="1.5" d="M3 16.5v2.25A2.25 2.25 0 0 0 5.25 21h13.5A2.25 2.25 0 0 0 21 18.75V16.5M16.5 12 12 16.5m0 0L7.5 12m4.5 4.5V3" />
  </symbol>

  <!-- trash (delete) -->
  <symbol id="icon-trash" viewBox="0 0 24 24">
    <path fill="none" stroke="currentColor" stroke-linecap="round" stroke-linejoin="round" stroke-width="1.5" d="M14.74 9l-.346 9m-4.788 0L9.26 9m9.968-3.21c.342.052.682.107 1.022.166m-1.022-.165L18.16 19.673a2.25 2.25 0 0 1-2.244 2.077H8.084a2.25 2.25 0 0 1-2.244-2.077L4.772 5.79m14.456 0a48.108 48.108 0 0 0-3.478-.397m-12 .562c.34-.059.68-.114 1.022-.165m0 0a48.11 48.11 0 0 1 3.478-.397m7.5 0v-.916c0-1.18-.91-2.164-2.09-2.201a51.964 51.964 0 0 0-3.32 0c-1.18.037-2.09 1.022-2.09 2.201v.916m7.5 0a48.667 48.667 0 0 0-7.5 0" />
  </symbol>

  <!-- ellipsis-vertical (drag handle) -->
  <symbol id="icon-ellipsis-vertical" viewBox="0 0 24 24">
    <path fill="none" stroke="currentColor" stroke-linecap="round" stroke-linejoin="round" stroke-width="1.5" d="M12 6.75a.75.75 0 1 1 0-1.5.75.75 0 0 1 0 1.5ZM12 12.75a.75.75 0 1 1 0-1.5.75.75 0 0 1 0 1.5ZM12 18.75a.75.75 0 1 1 0-1.5.75.75 0 0 1 0 1.5Z" />
  </symbol>

  <!-- chevron-up -->
  <symbol id="icon-chevron-up" viewBox="0 0 24 24">
    <path fill="none" stroke="currentColor" stroke-linecap="round" stroke-linejoin="round" stroke-width="1.5" d="m4.5 15.75 7.5-7.5 7.5 7.5" />
  </symbol>

  <!-- chevron-down -->
  <symbol id="icon-chevron-down" viewBox="0 0 24 24">
    <path fill="none" stroke="currentColor" stroke-linecap="round" stroke-linejoin="round" stroke-width="1.5" d="m19.5 8.25-7.5 7.5-7.5-7.5" />
  </symbol>

  <!-- arrow-up (move block up) -->
  <symbol id="icon-arrow-up" viewBox="0 0 24 24">
    <path fill="none" stroke="currentColor" stroke-linecap="round" stroke-linejoin="round" stroke-width="1.5" d="M4.5 10.5 12 3m0 0 7.5 7.5M12 3v18" />
  </symbol>

  <!-- arrow-down (move block down) -->
  <symbol id="icon-arrow-down" viewBox="0 0 24 24">
    <path fill="none" stroke="currentColor" stroke-linecap="round" stroke-linejoin="round" stroke-width="1.5" d="M19.5 13.5 12 21m0 0-7.5-7.5M12 21V3" />
  </symbol>

  <!-- check (menu selection) -->
  <symbol id="icon-check" viewBox="0 0 24 24">
    <path fill="none" stroke="currentColor" stroke-linecap="round" stroke-linejoin="round" stroke-width="1.5" d="M4.5 12.75l6 6 9-13.5" />
  </symbol>

  <!-- information-circle (callout icon) -->
  <symbol id="icon-information-circle" viewBox="0 0 24 24">
    <path fill="none" stroke="currentColor" stroke-linecap="round" stroke-linejoin="round" stroke-width="1.5" d="m11.25 11.25.041-.02a.75.75 0 0 1 1.063.852l-.708 2.836a.75.75 0 0 0 1.063.853l.041-.021M21 12a9 9 0 1 1-18 0 9 9 0 0 1 18 0Zm-9-3.75h.008v.008H12V8.25Z" />
  </symbol>

  <!-- code-bracket (code block) -->
  <symbol id="icon-code-bracket" viewBox="0 0 24 24">
    <path fill="none" stroke="currentColor" stroke-linecap="round" stroke-linejoin="round" stroke-width="1.5" d="M17.25 6.75 22.5 12l-5.25 5.25m-10.5 0L1.5 12l5.25-5.25m7.5-3-4.5 16.5" />
  </symbol>

  <!-- list-bullet (checklist) -->
  <symbol id="icon-list-bullet" viewBox="0 0 24 24">
    <path fill="none" stroke="currentColor" stroke-linecap="round" stroke-linejoin="round" stroke-width="1.5" d="M8.25 6.75h12M8.25 12h12m-12 5.25h12M3.75 6.75h.007v.008H3.75V6.75Zm.375 0a.375.375 0 1 1-.75 0 .375.375 0 0 1 .75 0ZM3.75 12h.007v.008H3.75V12Zm.375 0a.375.375 0 1 1-.75 0 .375.375 0 0 1 .75 0Zm-.375 5.25h.007v.008H3.75v-.008Zm.375 0a.375.375 0 1 1-.75 0 .375.375 0 0 1 .75 0Z" />
  </symbol>

  <!-- minus (divider) -->
  <symbol id="icon-minus" viewBox="0 0 24 24">
    <path fill="none" stroke="currentColor" stroke-linecap="round" stroke-linejoin="round" stroke-width="1.5" d="M5 12h14" />
  </symbol>

  <!-- document-text (paragraph) -->
  <symbol id="icon-document-text" viewBox="0 0 24 24">
    <path fill="none" stroke="currentColor" stroke-linecap="round" stroke-linejoin="round" stroke-width="1.5" d="M19.5 14.25v-2.625a3.375 3.375 0 0 0-3.375-3.375h-1.5A1.125 1.125 0 0 1 13.5 7.125v-1.5a3.375 3.375 0 0 0-3.375-3.375H8.25m0 12.75h7.5m-7.5 3H12M10.5 2.25H5.625c-.621 0-1.125.504-1.125 1.125v17.25c0 .621.504 1.125 1.125 1.125h12.75c.621 0 1.125-.504 1.125-1.125V11.25a9 9 0 0 0-9-9Z" />
  </symbol>
</svg>
